<mxfile host="app.diagrams.net" agent="Mozilla/5.0 (Windows NT 10.0; Win64; x64) AppleWebKit/537.36 (KHTML, like Gecko) Chrome/126.0.0.0 Safari/537.36 Edg/126.0.0.0" version="24.8.6">
  <diagram id="prtHgNgQTEPvFCAcTncT" name="Page-1">
    <mxGraphModel dx="868" dy="474" grid="1" gridSize="10" guides="1" tooltips="1" connect="1" arrows="1" fold="1" page="1" pageScale="1" pageWidth="827" pageHeight="1169" math="0" shadow="0">
      <root>
        <mxCell id="0" />
        <mxCell id="1" parent="0" />
        <mxCell id="dNxyNK7c78bLwvsdeMH5-11" value="客服智能仿真训练系统" style="swimlane;html=1;startSize=20;horizontal=1;containerType=tree;glass=0;" parent="1" vertex="1">
          <mxGeometry x="40" y="80" width="710" height="290" as="geometry" />
        </mxCell>
        <mxCell id="BFaYnIXH9BYEE6GlVEZw-1" value="" style="verticalLabelPosition=bottom;verticalAlign=top;html=1;shape=mxgraph.basic.patternFillRect;fillStyle=diag;step=5;fillStrokeWidth=0.2;fillStrokeColor=#dddddd;" vertex="1" parent="dNxyNK7c78bLwvsdeMH5-11">
          <mxGeometry x="10" y="170" width="120" height="60" as="geometry" />
        </mxCell>
        <mxCell id="BFaYnIXH9BYEE6GlVEZw-2" value="资源子服务" style="text;html=1;align=center;verticalAlign=middle;whiteSpace=wrap;rounded=0;" vertex="1" parent="dNxyNK7c78bLwvsdeMH5-11">
          <mxGeometry x="25" y="185" width="90" height="30" as="geometry" />
        </mxCell>
        <mxCell id="BFaYnIXH9BYEE6GlVEZw-4" value="" style="verticalLabelPosition=bottom;verticalAlign=top;html=1;shape=mxgraph.basic.patternFillRect;fillStyle=diag;step=5;fillStrokeWidth=0.2;fillStrokeColor=#dddddd;" vertex="1" parent="dNxyNK7c78bLwvsdeMH5-11">
          <mxGeometry x="150" y="170" width="120" height="60" as="geometry" />
        </mxCell>
        <mxCell id="BFaYnIXH9BYEE6GlVEZw-5" value="配置子服务" style="text;html=1;align=center;verticalAlign=middle;whiteSpace=wrap;rounded=0;" vertex="1" parent="dNxyNK7c78bLwvsdeMH5-11">
          <mxGeometry x="160" y="185" width="90" height="30" as="geometry" />
        </mxCell>
        <mxCell id="BFaYnIXH9BYEE6GlVEZw-6" value="" style="verticalLabelPosition=bottom;verticalAlign=top;html=1;shape=mxgraph.basic.patternFillRect;fillStyle=diag;step=5;fillStrokeWidth=0.2;fillStrokeColor=#dddddd;" vertex="1" parent="dNxyNK7c78bLwvsdeMH5-11">
          <mxGeometry x="295" y="58" width="120" height="60" as="geometry" />
        </mxCell>
        <mxCell id="BFaYnIXH9BYEE6GlVEZw-7" value="调度子服务" style="text;html=1;align=center;verticalAlign=middle;whiteSpace=wrap;rounded=0;" vertex="1" parent="dNxyNK7c78bLwvsdeMH5-11">
          <mxGeometry x="310" y="73" width="90" height="30" as="geometry" />
        </mxCell>
        <mxCell id="BFaYnIXH9BYEE6GlVEZw-8" value="" style="verticalLabelPosition=bottom;verticalAlign=top;html=1;shape=mxgraph.basic.patternFillRect;fillStyle=diag;step=5;fillStrokeWidth=0.2;fillStrokeColor=#dddddd;" vertex="1" parent="dNxyNK7c78bLwvsdeMH5-11">
          <mxGeometry x="430" y="170" width="120" height="60" as="geometry" />
        </mxCell>
        <mxCell id="BFaYnIXH9BYEE6GlVEZw-9" value="训练子服务" style="text;html=1;align=center;verticalAlign=middle;whiteSpace=wrap;rounded=0;" vertex="1" parent="dNxyNK7c78bLwvsdeMH5-11">
          <mxGeometry x="440" y="185" width="90" height="30" as="geometry" />
        </mxCell>
        <mxCell id="BFaYnIXH9BYEE6GlVEZw-10" value="" style="verticalLabelPosition=bottom;verticalAlign=top;html=1;shape=mxgraph.basic.patternFillRect;fillStyle=diag;step=5;fillStrokeWidth=0.2;fillStrokeColor=#dddddd;" vertex="1" parent="dNxyNK7c78bLwvsdeMH5-11">
          <mxGeometry x="580" y="170" width="120" height="60" as="geometry" />
        </mxCell>
        <mxCell id="BFaYnIXH9BYEE6GlVEZw-11" value="外呼子服务" style="text;html=1;align=center;verticalAlign=middle;whiteSpace=wrap;rounded=0;" vertex="1" parent="dNxyNK7c78bLwvsdeMH5-11">
          <mxGeometry x="590" y="185" width="90" height="30" as="geometry" />
        </mxCell>
        <mxCell id="BFaYnIXH9BYEE6GlVEZw-17" value="" style="shape=actor;whiteSpace=wrap;html=1;" vertex="1" parent="dNxyNK7c78bLwvsdeMH5-11">
          <mxGeometry x="110" y="50" width="40" height="60" as="geometry" />
        </mxCell>
        <mxCell id="BFaYnIXH9BYEE6GlVEZw-20" value="" style="shape=actor;whiteSpace=wrap;html=1;" vertex="1" parent="dNxyNK7c78bLwvsdeMH5-11">
          <mxGeometry x="560" y="50" width="40" height="60" as="geometry" />
        </mxCell>
        <mxCell id="BFaYnIXH9BYEE6GlVEZw-21" value="学员训练侧" style="text;html=1;align=center;verticalAlign=middle;resizable=0;points=[];autosize=1;strokeColor=none;fillColor=none;" vertex="1" parent="dNxyNK7c78bLwvsdeMH5-11">
          <mxGeometry x="540" y="118" width="80" height="30" as="geometry" />
        </mxCell>
        <mxCell id="BFaYnIXH9BYEE6GlVEZw-22" value="" style="shape=mxgraph.arrows.signal-in_arrow;html=1;verticalLabelPosition=bottom;verticalAlign=top;strokeWidth=2;strokeColor=#000000;" vertex="1" parent="dNxyNK7c78bLwvsdeMH5-11">
          <mxGeometry x="180" y="73" width="97" height="30" as="geometry" />
        </mxCell>
        <mxCell id="BFaYnIXH9BYEE6GlVEZw-25" value="" style="shape=mxgraph.arrows.signal-in_arrow;html=1;verticalLabelPosition=bottom;verticalAlign=top;strokeWidth=2;strokeColor=#000000;" vertex="1" parent="dNxyNK7c78bLwvsdeMH5-11">
          <mxGeometry x="430" y="73" width="97" height="30" as="geometry" />
        </mxCell>
        <mxCell id="BFaYnIXH9BYEE6GlVEZw-27" value="" style="line;strokeWidth=2;direction=south;html=1;" vertex="1" parent="dNxyNK7c78bLwvsdeMH5-11">
          <mxGeometry x="277" y="25" width="10" height="265" as="geometry" />
        </mxCell>
        <mxCell id="BFaYnIXH9BYEE6GlVEZw-26" value="" style="line;strokeWidth=2;direction=south;html=1;" vertex="1" parent="dNxyNK7c78bLwvsdeMH5-11">
          <mxGeometry x="420" y="27.5" width="10" height="260" as="geometry" />
        </mxCell>
        <mxCell id="BFaYnIXH9BYEE6GlVEZw-18" value="讲师配置侧" style="text;html=1;align=center;verticalAlign=middle;resizable=0;points=[];autosize=1;strokeColor=none;fillColor=none;" vertex="1" parent="1">
          <mxGeometry x="130" y="198" width="80" height="30" as="geometry" />
        </mxCell>
      </root>
    </mxGraphModel>
  </diagram>
</mxfile>
